<svg width="38" height="38" viewBox="0 0 38 38" fill="none" xmlns="http://www.w3.org/2000/svg">
<circle opacity="0.1" cx="19" cy="19" r="19" fill="white"/>
<g clip-path="url(#clip0_2_66)">
<path d="M29.162 12.6559C28.3986 12.9936 27.589 13.2154 26.76 13.3139C27.6338 12.7914 28.2877 11.9689 28.6 10.9999C27.78 11.4879 26.881 11.8299 25.944 12.0149C25.3146 11.3415 24.4804 10.8949 23.571 10.7445C22.6615 10.5941 21.7279 10.7484 20.9153 11.1834C20.1026 11.6183 19.4564 12.3096 19.0771 13.1497C18.6978 13.9898 18.6067 14.9317 18.818 15.8289C17.1551 15.7456 15.5283 15.3134 14.0433 14.5606C12.5582 13.8077 11.2481 12.751 10.198 11.4589C9.82629 12.0974 9.63095 12.8232 9.632 13.5619C9.632 15.0119 10.37 16.2929 11.492 17.0429C10.828 17.022 10.1786 16.8427 9.598 16.5199V16.5719C9.5982 17.5376 9.93237 18.4735 10.5438 19.221C11.1553 19.9684 12.0065 20.4814 12.953 20.6729C12.3366 20.84 11.6903 20.8646 11.063 20.7449C11.3299 21.5762 11.85 22.3031 12.5506 22.824C13.2512 23.3449 14.0971 23.6337 14.97 23.6499C14.1025 24.3313 13.1092 24.8349 12.0469 25.1321C10.9846 25.4293 9.87413 25.5142 8.779 25.3819C10.6907 26.6114 12.9161 27.264 15.189 27.2619C22.882 27.2619 27.089 20.8889 27.089 15.3619C27.089 15.1819 27.084 14.9999 27.076 14.8219C27.8949 14.2301 28.6016 13.4969 29.163 12.6569L29.162 12.6559Z" fill="white"/>
</g>
<defs>
<clipPath id="clip0_2_66">
<rect width="24" height="24" fill="white" transform="translate(7 7)"/>
</clipPath>
</defs>
</svg>
